<?xml version="1.0" encoding="UTF-8" standalone="no"?>
<!-- Created with Inkscape (http://www.inkscape.org/) -->

<svg
   xmlns:dc="http://purl.org/dc/elements/1.1/"
   xmlns:cc="http://creativecommons.org/ns#"
   xmlns:rdf="http://www.w3.org/1999/02/22-rdf-syntax-ns#"
   xmlns:svg="http://www.w3.org/2000/svg"
   xmlns="http://www.w3.org/2000/svg"
   xmlns:sodipodi="http://sodipodi.sourceforge.net/DTD/sodipodi-0.dtd"
   xmlns:inkscape="http://www.inkscape.org/namespaces/inkscape"
   width="210mm"
   height="103mm"
   viewBox="0 0 210 103"
   version="1.1"
   id="svg1068"
   inkscape:version="0.92.2 (unknown)"
   sodipodi:docname="minivan_01.svg">
  <defs
     id="defs1062">
    <inkscape:path-effect
       effect="spiro"
       id="path-effect1703"
       is_visible="true" />
    <inkscape:path-effect
       effect="spiro"
       id="path-effect1699"
       is_visible="true" />
    <inkscape:path-effect
       effect="spiro"
       id="path-effect1693"
       is_visible="true" />
    <inkscape:path-effect
       effect="spiro"
       id="path-effect1689"
       is_visible="true" />
    <inkscape:path-effect
       effect="spiro"
       id="path-effect1677"
       is_visible="true" />
    <inkscape:path-effect
       effect="spiro"
       id="path-effect1673"
       is_visible="true" />
    <inkscape:path-effect
       effect="spiro"
       id="path-effect1669"
       is_visible="true" />
    <inkscape:path-effect
       effect="spiro"
       id="path-effect1665"
       is_visible="true" />
    <inkscape:path-effect
       effect="spiro"
       id="path-effect1660"
       is_visible="true" />
    <inkscape:path-effect
       effect="spiro"
       id="path-effect1656"
       is_visible="true" />
    <inkscape:path-effect
       effect="spiro"
       id="path-effect1652"
       is_visible="true" />
    <inkscape:path-effect
       effect="spiro"
       id="path-effect1648"
       is_visible="true" />
    <inkscape:path-effect
       effect="spiro"
       id="path-effect1644"
       is_visible="true" />
  </defs>
  <sodipodi:namedview
     id="base"
     pagecolor="#ffffff"
     bordercolor="#666666"
     borderopacity="1.0"
     inkscape:pageopacity="0.0"
     inkscape:pageshadow="2"
     inkscape:zoom="0.84814441"
     inkscape:cx="617.67181"
     inkscape:cy="210.02956"
     inkscape:document-units="mm"
     inkscape:current-layer="layer3"
     showgrid="false"
     showborder="true"
     inkscape:snap-global="false"
     showguides="true"
     inkscape:guide-bbox="true"
     inkscape:window-width="1366"
     inkscape:window-height="716"
     inkscape:window-x="0"
     inkscape:window-y="0"
     inkscape:window-maximized="1" />
  <metadata
     id="metadata1065">
    <rdf:RDF>
      <cc:Work
         rdf:about="">
        <dc:format>image/svg+xml</dc:format>
        <dc:type
           rdf:resource="http://purl.org/dc/dcmitype/StillImage" />
        <dc:title></dc:title>
      </cc:Work>
    </rdf:RDF>
  </metadata>
  <g
     inkscape:groupmode="layer"
     id="layer3"
     inkscape:label="Ebene 2"
     transform="translate(0,-194)">
    <g
       id="g1708"
       transform="matrix(0.93219388,0,0,0.93219388,82.911652,239.00399)">
      <circle
         r="17.313263"
         cy="41.674614"
         cx="-51.083725"
         id="path1625"
         style="opacity:1;fill:#000000;fill-opacity:1;fill-rule:nonzero;stroke:none;stroke-width:1.05882359;stroke-linecap:round;stroke-linejoin:round;stroke-miterlimit:4;stroke-dasharray:none;stroke-dashoffset:0;stroke-opacity:0.56862745" />
      <circle
         r="17.313265"
         cy="40.135674"
         cx="100.26321"
         id="path1625-5"
         style="opacity:1;fill:#000000;fill-opacity:1;fill-rule:nonzero;stroke:none;stroke-width:1.05882359;stroke-linecap:round;stroke-linejoin:round;stroke-miterlimit:4;stroke-dasharray:none;stroke-dashoffset:0;stroke-opacity:0.56862745" />
      <path
         sodipodi:nodetypes="ccccccccsscccczccccccccccccccccccccscccccccc"
         inkscape:connector-curvature="0"
         id="path1646"
         d="m 116.39247,-37.375736 -4.43864,-6.348269 -70.154894,-0.113688 -9.976426,5.778458 c 0,0 -19.920349,1.27299 -27.8884469,3.555338 -7.2855016,2.08683 -14.5764691,4.875242 -20.7759921,9.234062 -8.29702,5.833549 -16.810734,20.6901623 -21.037476,21.9826386 -13.846501,3.1694993 -27.330054,2.154981 -38.055039,9.6541907 -4.042455,2.8265939 -6.868668,7.5152617 -8.341096,12.2230247 -2.570244,8.217813 -0.191717,25.830466 -0.191717,25.830466 l 12.231836,0.144023 c 0,-13.710612 6.691507,-24.163608 21.171291,-24.355982 15.109027,1.737089 22.469947,10.599397 22.469947,25.085807 L 78.573434,43.598314 c 0,-12.29662 4.808146,-24.79797 20.578978,-24.79797 15.770828,0 22.939118,11.930044 22.939118,20.874205 4.6833,0 5.1692,0.01063 7.78165,0.01063 1.97222,-1.972217 1.97781,-2.012371 3.71808,-4.55095 -1.40507,-18.372895 -0.12179,-48.436863 -11.87345,-71.978235 l -5.57519,-0.718144 m -1.62821,8.976888 c 2.76856,5.490923 3.13424,14.38087 1.49174,22.3911191 -9.82928,0.892638 -14.50353,0.7261272 -26.491401,1.6918131 -4.641649,-6.5009382 -3.809434,-20.2818572 -2.639633,-25.9586662 9.456314,-0.286465 24.777604,-2.23843 27.639294,1.875734 z m -38.045271,0.196138 c 0.491645,7.02896 0.617036,16.430867 0.500131,23.4315339 -0.134525,1.0448246 -0.415987,0.9913411 -1.139296,1.5758637 -9.671953,0.4995504 -23.410552,0.8355324 -32.251415,1.3830046 -1.15163,-0.2758716 -1.195319,-0.1752093 -1.87588,-1.0618242 0.14811,-6.7919827 0.484799,-17.888754 0.536285,-24.906433 0.452446,-1.424274 0.987715,-1.492708 2.474486,-1.917103 9.949784,-0.0035 20.736873,-0.4789 29.560721,-0.430196 1.251792,0.21915 1.859986,0.325 2.194968,1.925154 z m -45.995668,-0.936605 c -1.727604,7.993266 -7.061997,28.71834087 -7.061997,28.71834087 0,0 -24.8556045,1.5418998 -46.461431,2.84580843 -2.852386,0.1721411 -1.421846,-6.5913713 -0.676306,-9.0106815 8.358467,-16.9330698 23.685329,-22.0308428 54.199734,-22.5534678 z m 9.278561,-9.053906 3.183784,-2.501653 h 64.128904 l 2.04638,2.729031 z"
         style="opacity:1;fill:#000000;fill-rule:evenodd;stroke:none;stroke-width:0.26458332px;stroke-linecap:butt;stroke-linejoin:miter;stroke-opacity:1" />
    </g>
  </g>
</svg>
