<?xml version="1.0" encoding="UTF-8" standalone="no"?>
<!-- Created with Inkscape (http://www.inkscape.org/) -->

<svg
   xmlns:dc="http://purl.org/dc/elements/1.1/"
   xmlns:cc="http://creativecommons.org/ns#"
   xmlns:rdf="http://www.w3.org/1999/02/22-rdf-syntax-ns#"
   xmlns:svg="http://www.w3.org/2000/svg"
   xmlns="http://www.w3.org/2000/svg"
   xmlns:sodipodi="http://sodipodi.sourceforge.net/DTD/sodipodi-0.dtd"
   xmlns:inkscape="http://www.inkscape.org/namespaces/inkscape"
   width="168.21733mm"
   height="68.378036mm"
   viewBox="0 0 596.04566 242.28438"
   id="svg5464"
   version="1.1"
   inkscape:version="0.91 r13725"
   sodipodi:docname="rav4_vector.svg">
  <defs
     id="defs5466" />
  <sodipodi:namedview
     id="base"
     pagecolor="#ffffff"
     bordercolor="#666666"
     borderopacity="1.0"
     inkscape:pageopacity="0.0"
     inkscape:pageshadow="2"
     inkscape:zoom="0.35"
     inkscape:cx="774.45141"
     inkscape:cy="-7.4292364"
     inkscape:document-units="px"
     inkscape:current-layer="layer1"
     showgrid="false"
     fit-margin-top="0"
     fit-margin-left="0"
     fit-margin-right="0"
     fit-margin-bottom="0"
     inkscape:window-width="1440"
     inkscape:window-height="808"
     inkscape:window-x="139"
     inkscape:window-y="0"
     inkscape:window-maximized="0" />
  <metadata
     id="metadata5469">
    <rdf:RDF>
      <cc:Work
         rdf:about="">
        <dc:format>image/svg+xml</dc:format>
        <dc:type
           rdf:resource="http://purl.org/dc/dcmitype/StillImage" />
        <dc:title></dc:title>
      </cc:Work>
    </rdf:RDF>
  </metadata>
  <g
     inkscape:label="Layer 1"
     inkscape:groupmode="layer"
     id="layer1"
     transform="translate(855.16569,-282.64857)">
    <path
       inkscape:connector-curvature="0"
       id="path4292"
       d="m -506.68031,283.12047 c -16.75164,-0.0636 -32.3767,0.26238 -45.88477,1.125 -17.22703,1.10009 -34.77987,2.90046 -51.07617,8.74218 -32.67886,11.71435 -90.80078,48.63086 -90.80078,48.63086 -1.78604,2.13482 -109.03273,14.0549 -144.00781,35.16211 -12.59947,7.60369 -18.25876,49.85518 -15.60742,59.01758 7.17768,24.80434 54.22779,42.3353 59.58984,42.25977 l 8.35547,-0.11719 0.006,0.0117 15.36328,-0.21094 a 58.741428,58.741428 0 0 1 -0.1875,-4.48633 58.741428,58.741428 0 0 1 58.74219,-58.74023 58.741428,58.741428 0 0 1 58.74023,58.74023 58.741428,58.741428 0 0 1 -0.14453,2.88477 l 217.5957,-2.97461 a 58.741428,58.741428 0 0 1 58.73633,-58.65039 58.741428,58.741428 0 0 1 58.68164,57.04687 l 9.51758,-0.13086 -0.041,-0.21289 31.78125,-0.44726 c 0,0 17.96411,-41.9018 17.73437,-64.11915 -0.40196,-38.87125 -33.33984,-111.47656 -33.33984,-111.47656 0,0 -123.29504,-11.71119 -213.75391,-12.05468 z"
       style="opacity:1;fill:#000000;fill-rule:evenodd;stroke:#000000;stroke-width:0.92836851px;stroke-linecap:butt;stroke-linejoin:miter;stroke-opacity:1" />
    <circle
       style="opacity:1;fill:#000000;fill-rule:evenodd;stroke:#000000;stroke-width:0.80693084px;stroke-linecap:butt;stroke-linejoin:miter;stroke-opacity:1"
       id="circle4294"
       cx="-378.4942"
       cy="476.5383"
       r="45.930107" />
    <path
       inkscape:connector-curvature="0"
       style="opacity:1;fill:#ffff00;fill-opacity:1;stroke:none;stroke-width:1;stroke-linecap:round;stroke-linejoin:miter;stroke-miterlimit:4;stroke-dasharray:none;stroke-opacity:1"
       d="m -778.80167,371.02946 c -14.95882,-0.19215 -49.38491,12.7659 -67.9414,17.52344 -2.40765,4.69782 -4.38761,10.53544 -5.92968,16.64844 l 45.5,-8.27344 c 1.67623,-0.30477 35.91871,-10.75619 35.62304,-21.68359 -0.0796,-2.94003 -2.80671,-4.15774 -7.25196,-4.21485 z"
       id="path4296" />
    <path
       sodipodi:nodetypes="sccccccscssccc"
       inkscape:connector-curvature="0"
       id="path4300"
       d="m -480.77118,288.85485 c -5.46425,-0.13458 -10.86479,-0.18791 -16.19529,-0.17931 l -7.17449,58.72106 133.43568,0.54747 -17.09773,-51.468 c 36.50348,4.73848 63.58656,10.33577 65.10153,12.84357 l 0.0374,-0.0378 c 1.42488,-4.025 -82.9417,-18.57567 -158.1071,-20.427 z m -35.31687,0.20414 c -11.9673,0.49129 -23.22492,1.45886 -33.26396,3.03759 -11.65721,1.83318 -23.60669,3.32604 -34.53871,7.76919 -35.02227,14.23415 -96.63746,48.1723 -96.63746,48.1723 l 157.03879,-0.0189 z"
       style="opacity:1;fill:#00ffff;fill-rule:evenodd;stroke:#000000;stroke-width:0.98680544px;stroke-linecap:butt;stroke-linejoin:miter;stroke-opacity:1" />
    <rect
       style="opacity:1;fill:#ffff00;fill-opacity:1;stroke:none;stroke-width:1;stroke-linecap:round;stroke-linejoin:miter;stroke-miterlimit:4;stroke-dasharray:none;stroke-opacity:1"
       id="rect4304"
       width="35.623093"
       height="9.2929811"
       x="-543.97076"
       y="367.72589"
       ry="4.2505593" />
    <rect
       ry="4.2505593"
       y="365.52808"
       x="-397.81689"
       height="9.2929811"
       width="35.623093"
       id="rect4306"
       style="opacity:1;fill:#ffff00;fill-opacity:1;stroke:none;stroke-width:1;stroke-linecap:round;stroke-linejoin:miter;stroke-miterlimit:4;stroke-dasharray:none;stroke-opacity:1" />
    <path
       inkscape:connector-curvature="0"
       style="opacity:1;fill:#ff0000;fill-opacity:1;stroke:none;stroke-width:1;stroke-linecap:round;stroke-linejoin:miter;stroke-miterlimit:4;stroke-dasharray:none;stroke-opacity:1"
       d="m -298.3669,345.08806 c -2.35481,0 -4.25195,1.89714 -4.25195,4.25195 l 0,14.57422 c 0,2.35481 1.89714,4.25195 4.25195,4.25195 l 32.03125,0 c -2.2281,-7.7569 -4.76373,-15.56398 -7.39648,-23.07812 l -24.63477,0 z"
       id="path4308" />
    <circle
       r="45.930107"
       cy="478.5994"
       cx="-713.42346"
       id="circle4160"
       style="opacity:1;fill:#000000;fill-rule:evenodd;stroke:#000000;stroke-width:0.80693084px;stroke-linecap:butt;stroke-linejoin:miter;stroke-opacity:1" />
  </g>
</svg>
